<svg xmlns="http://www.w3.org/2000/svg" xmlns:xlink="http://www.w3.org/1999/xlink" width="32" height="32" viewBox="0 0 32 32">
    <defs>
        <linearGradient id="b" x1="20.643%" x2="81.354%" y1="88.674%" y2="12.81%">
            <stop offset="0%" stop-color="#9E2C32"/>
            <stop offset="100%" stop-color="#EC9636"/>
        </linearGradient>
        <circle id="a" cx="16" cy="16" r="16"/>
    </defs>
    <g fill="none" fill-rule="evenodd">
        <mask id="c" fill="#fff">
            <use xlink:href="#a"/>
        </mask>
        <use fill="url(#b)" xlink:href="#a"/>
        <g mask="url(#c)">
            <path fill="#EC9636" d="M11.503 9.444c5.707-5.688 12.606-7.158 15.358-3.27 2.752 3.885.343 11.694-5.364 17.382-5.706 5.688-12.606 7.158-15.358 3.271-2.752-3.887-.343-11.695 5.364-17.383"/>
            <path fill="#9E2C32" d="M15.452 6.372A17.46 17.46 0 0 0 13.59 7.99C8.644 12.922 6.59 19.701 9.024 23.091c2.511 3.39 8.596 2.158 13.617-2.85 2.7-2.659 4.526-5.779 5.287-8.668.228-2.119-.076-4.007-1.027-5.432-2.168-3.005-6.808-2.773-11.449.231"/>
            <path fill="#FFFFFE" d="M17.82 26.323c-2.572 2.006-5.229 3-7.82 2.584 1.086.058 1.965-1.195 2.686-2.878.73-1.725 1.17-3.325 1.52-4.821.511-2.37.551-4.062.291-4.426-.44-.603-1.44-.447-2.571.228-.54.312-1.261.104-.41-.966.86-1.08 4.282-3.678 5.512-4.083 1.351-.406 2.892.145 2.372 1.683-.37 1.122-5.103 14.019-1.58 12.68M21.69 6.318c.64.665.25 2.12-.84 3.263-1.101 1.132-2.532 1.537-3.152.882-.66-.654-.27-2.129.83-3.283 1.111-1.153 2.541-1.506 3.162-.862"/>
        </g>
    </g>
</svg>
